# xmcd
#
# Track frame offsets:
#	150
#	16049
#	28551
#	43911
#	55474
#	74929
#	86813
#	91834
#	106071
#	119800
#	132527
#	152001
#	163159
#	175817
#	188965
#
# Disc length: 2694 seconds
#
# Revision: 1
# Processed by: cddbd v1.5.2PL0 Copyright (c) Steve Scherf et al.
# Submitted via: audiograbber 1.83.01
#
DISCID=d60a840f
DTITLE=Various Artist - FH The Very Best Of Country Vol 3
DYEAR=1900
DGENRE=Country
TTITLE0=George Jones - He Stopped Loving Her Today
TTITLE1=Merle Haggard - Okie From Muskogee
TTITLE2=George Strait - All My Ex's Live In Texas
TTITLE3=Roger Miller - King Of The Road
TTITLE4=Hank Williams Jr. - Family Tradition
TTITLE5=Buck Owens - Act Naturally
TTITLE6=Various Artist - Home On The Range
TTITLE7=Jimmy Dean - Big Bad John
TTITLE8=Charlie Rich - Behind Closed Doors
TTITLE9=Hank Williams - Your Cheatin' Heart
TTITLE10=Alabama - Mountain Music
TTITLE11=Various Artist - Clementine
TTITLE12=Oak Ridge Boys - Elvira
TTITLE13=Waylon Jennings and Willie Nelson - Mammas Don't Let Your Babies Grow Up
TTITLE13=To Be Cowboys
TTITLE14=Tennessee Ernie Ford - Sixteen Tons
EXTD=
EXTT0=
EXTT1=
EXTT2=
EXTT3=
EXTT4=
EXTT5=
EXTT6=
EXTT7=
EXTT8=
EXTT9=
EXTT10=
EXTT11=
EXTT12=
EXTT13=
EXTT14=
PLAYORDER=
